HIERARCHY
ROOT Hips
{
	OFFSET 0.000000 0.000000 0.000000
	CHANNELS 6 Xposition Yposition Zposition Xrotation Yrotation Zrotation
	JOINT LeftUpLeg_virtual
	{
		OFFSET 0.000000 0.000000 0.000000
		CHANNELS 3 Xrotation Yrotation Zrotation
		JOINT LeftUpLeg
		{
			OFFSET 11.394100 -6.187798 -0.413800
			CHANNELS 3 Xrotation Yrotation Zrotation
			JOINT LeftLeg
			{
				OFFSET 0.430247 -32.302673 3.732800
				CHANNELS 3 Xrotation Yrotation Zrotation
				JOINT LeftFoot
				{
					OFFSET -0.430247 -48.264931 -6.423300
					CHANNELS 3 Xrotation Yrotation Zrotation
					JOINT LeftToeBase
					{
						OFFSET 4.230900 -16.068199 23.438400
						CHANNELS 3 Xrotation Yrotation Zrotation
						JOINT LeftToe_End
						{
							OFFSET 4.510700 0.695400 19.974600
							CHANNELS 3 Xrotation Yrotation Zrotation
							End Site
							{
								OFFSET 0 0 0
							}
						}
					}
				}
			}
		}
	}
	JOINT RightUpLeg_virtual
	{
		OFFSET 0.000000 0.000000 0.000000
		CHANNELS 3 Xrotation Yrotation Zrotation
		JOINT RightUpLeg
		{
			OFFSET -11.333700 -6.187798 -0.413800
			CHANNELS 3 Xrotation Yrotation Zrotation
			JOINT RightLeg
			{
				OFFSET -0.430392 -32.302628 3.733000
				CHANNELS 3 Xrotation Yrotation Zrotation
				JOINT RightFoot
				{
					OFFSET 0.430392 -48.264973 -6.423500
					CHANNELS 3 Xrotation Yrotation Zrotation
					JOINT RightToeBase
					{
						OFFSET -4.230900 -16.068199 23.438400
						CHANNELS 3 Xrotation Yrotation Zrotation
						JOINT RightToe_End
						{
							OFFSET -4.510700 0.695400 19.974600
							CHANNELS 3 Xrotation Yrotation Zrotation
							End Site
							{
								OFFSET 0 0 0
							}
						}
					}
				}
			}
		}
	}
	JOINT Spine_virtual
	{
		OFFSET 0.000000 0.000000 0.000000
		CHANNELS 3 Xrotation Yrotation Zrotation
		JOINT Spine
		{
			OFFSET -0.002400 12.777504 0.315300
			CHANNELS 3 Xrotation Yrotation Zrotation
			JOINT Spine1
			{
				OFFSET -0.002067 5.816869 0.032633
				CHANNELS 3 Xrotation Yrotation Zrotation
				JOINT Spine1_split
				{
					OFFSET -0.002067 5.816869 0.032633
					CHANNELS 3 Xrotation Yrotation Zrotation
					JOINT Spine2
					{
						OFFSET -0.002067 5.816869 0.032633
						CHANNELS 3 Xrotation Yrotation Zrotation
						JOINT Neck_virtual
						{
							OFFSET 0.000000 0.000000 0.000000
							CHANNELS 3 Xrotation Yrotation Zrotation
							JOINT Neck
							{
								OFFSET -0.003700 21.199493 -0.826900
								CHANNELS 3 Xrotation Yrotation Zrotation
								JOINT Head
								{
									OFFSET 0.000000 20.442200 4.834800
									CHANNELS 3 Xrotation Yrotation Zrotation
									JOINT HeadTop_End
									{
										OFFSET 0.000000 34.668396 4.968400
										CHANNELS 3 Xrotation Yrotation Zrotation
										End Site
										{
											OFFSET 0 0 0
										}
									}
								}
							}
						}
						JOINT LeftShoulder_virtual
						{
							OFFSET 0.000000 0.000000 0.000000
							CHANNELS 3 Xrotation Yrotation Zrotation
							JOINT LeftShoulder
							{
								OFFSET 3.288150 8.794197 -1.372250
								CHANNELS 3 Xrotation Yrotation Zrotation
								JOINT LeftShoulder_split
								{
									OFFSET 3.288150 8.794197 -1.372250
									CHANNELS 3 Xrotation Yrotation Zrotation
									JOINT LeftArm
									{
										OFFSET 11.953299 -2.279007 -0.146200
										CHANNELS 3 Xrotation Yrotation Zrotation
										JOINT LeftForeArm
										{
											OFFSET 18.448900 0.000000 0.000000
											CHANNELS 3 Xrotation Yrotation Zrotation
											JOINT LeftHand
											{
												OFFSET 29.527798 0.000000 0.000000
												CHANNELS 3 Xrotation Yrotation Zrotation
												End Site
												{
													OFFSET 0 0 0
												}
											}
										}
									}
								}
							}
						}
						JOINT RightShoulder_virtual
						{
							OFFSET 0.000000 0.000000 0.000000
							CHANNELS 3 Xrotation Yrotation Zrotation
							JOINT RightShoulder
							{
								OFFSET -3.249400 8.794197 -1.372250
								CHANNELS 3 Xrotation Yrotation Zrotation
								JOINT RightShoulder_split
								{
									OFFSET -3.249400 8.794197 -1.372250
									CHANNELS 3 Xrotation Yrotation Zrotation
									JOINT RightArm
									{
										OFFSET -11.953299 -2.279007 -0.146200
										CHANNELS 3 Xrotation Yrotation Zrotation
										JOINT RightForeArm
										{
											OFFSET -18.448900 0.000000 0.000000
											CHANNELS 3 Xrotation Yrotation Zrotation
											JOINT RightHand
											{
												OFFSET -29.527802 0.000000 0.000000
												CHANNELS 3 Xrotation Yrotation Zrotation
												End Site
												{
													OFFSET 0 0 0
												}
											}
										}
									}
								}
							}
						}
					}
				}
			}
		}
	}
}
MOTION
Frames: 6
Frame Time: 0.03333333
1.118992 13.908348 -2.691856 0.000000 0.000000 0.000000 -90.591231 -3.125434 -1.533097 -27.303683 11.264746 -1.906606 30.865516 -7.217284 -5.300882 5.768493 6.717918 6.048883 10.387563 -0.322473 2.845690 0.000000 0.000000 0.000000 -92.015229 -3.722057 -5.011183 -11.933292 -6.475605 -5.343118 12.747942 0.078706 3.113081 15.796033 -3.158298 25.260531 -1.116278 -1.178538 1.210066 0.000000 0.000000 0.000000 -88.375046 -3.730473 -4.508811 4.589749 2.456043 1.126020 -1.176269 1.081715 -0.055550 0.389666 0.777106 -0.290886 0.000000 0.000000 0.000000 -1.862172 0.494068 0.238516 2.601379 0.862354 -0.191710 10.432626 -5.061736 10.256764 0.000000 0.000000 0.000000 -2.611040 1.081518 0.185054 0.993429 -13.948746 -3.591631 -2.783714 -0.036794 -4.107159 27.377772 0.144918 -68.999527 -178.856659 -39.077247 -178.212422 0.000000 0.000000 0.000000 -1.840169 0.778058 -0.740709 0.955816 1.999298 0.587673 1.206324 4.255668 0.262899 11.885374 7.193708 73.174269 -179.755798 46.358270 -179.324964 0.000000 0.000000 0.000000 
1.119475 13.907349 -2.691113 0.000000 0.000000 0.000000 -90.589974 -3.125682 -1.533014 -27.306138 11.262647 -1.908099 30.868217 -7.216135 -5.300767 5.769460 6.718082 6.047268 10.387338 -0.322695 2.844799 0.000000 0.000000 0.000000 -92.012395 -3.719428 -5.007385 -11.933125 -6.479118 -5.344332 12.744902 0.079307 3.113813 15.797842 -3.160149 25.258588 -1.117934 -1.179099 1.211032 0.000000 0.000000 0.000000 -88.374240 -3.731555 -4.510744 4.591092 2.455440 1.125574 -1.178157 1.081446 -0.055608 0.391018 0.784778 -0.292236 0.000000 0.000000 0.000000 -1.863528 0.493178 0.237901 2.597858 0.861738 -0.192459 10.434413 -5.061136 10.254096 0.000000 0.000000 0.000000 -2.614387 1.081779 0.184198 0.995404 -13.948605 -3.585195 -2.787054 -0.037079 -4.116458 27.380314 0.151368 -69.008297 -178.852615 -39.065653 -178.207996 0.000000 0.000000 0.000000 -1.841772 0.777822 -0.741193 0.953545 1.996573 0.583479 1.216227 4.261700 0.261505 11.893084 7.191267 73.173797 -179.756878 46.340614 -179.324964 0.000000 0.000000 0.000000 
1.119614 13.905373 -2.689854 0.000000 0.000000 0.000000 -90.587098 -3.124996 -1.532641 -27.312038 11.261399 -1.908969 30.876106 -7.214468 -5.301046 5.769228 6.718242 6.047040 10.387394 -0.322621 2.845255 0.000000 0.000000 0.000000 -92.007887 -3.715636 -5.002909 -11.933806 -6.486144 -5.345561 12.741634 0.077746 3.114785 15.798132 -3.166341 25.251884 -1.115613 -1.180036 1.214660 0.000000 0.000000 0.000000 -88.372526 -3.733210 -4.513507 4.591134 2.452957 1.126780 -1.180405 1.080880 -0.056879 0.390033 0.790531 -0.294172 0.000000 0.000000 0.000000 -1.863855 0.492827 0.236061 2.597021 0.863043 -0.190343 10.435265 -5.062202 10.255883 0.000000 0.000000 0.000000 -2.617579 1.082171 0.183354 0.998704 -13.948673 -3.564607 -2.788477 -0.035311 -4.124795 27.386268 0.164373 -69.026889 -178.848080 -39.048963 -178.204335 0.000000 0.000000 0.000000 -1.844203 0.777185 -0.742380 0.951251 1.990463 0.576244 1.228920 4.274187 0.261708 11.903251 7.191095 73.175116 -179.755225 46.323340 -179.324581 0.000000 0.000000 0.000000 
1.119610 13.902687 -2.688419 0.000000 0.000000 0.000000 -90.582706 -3.124328 -1.532291 -27.319331 11.260742 -1.909659 30.886771 -7.212450 -5.301066 5.767705 6.718594 6.047463 10.386631 -0.322326 2.847080 0.000000 0.000000 0.000000 -92.001630 -3.711199 -4.998061 -11.936359 -6.495837 -5.347128 12.738508 0.075660 3.116002 15.798791 -3.174633 25.243416 -1.109825 -1.181026 1.219462 0.000000 0.000000 0.000000 -88.370210 -3.734949 -4.516095 4.589181 2.448953 1.129414 -1.182905 1.079955 -0.058598 0.388988 0.793604 -0.294746 0.000000 0.000000 0.000000 -1.863085 0.493196 0.233823 2.598990 0.865992 -0.186460 10.433205 -5.066266 10.261906 0.000000 0.000000 0.000000 -2.620484 1.083010 0.183166 1.002235 -13.946854 -3.538037 -2.792118 -0.033901 -4.129511 27.392752 0.180041 -69.046840 -178.844091 -39.034685 -178.201179 0.000000 0.000000 0.000000 -1.847401 0.776421 -0.743589 0.949101 1.982494 0.568560 1.241420 4.289340 0.263186 11.914484 7.191107 73.174904 -179.750799 46.311346 -179.324704 0.000000 0.000000 0.000000 
1.119347 13.899620 -2.687340 0.000000 0.000000 0.000000 -90.576518 -3.124341 -1.532152 -27.325563 11.260222 -1.910659 30.897033 -7.210109 -5.300417 5.764620 6.719214 6.048527 10.384259 -0.321913 2.849798 0.000000 0.000000 0.000000 -91.993892 -3.706981 -4.993154 -11.941005 -6.507057 -5.348730 12.735368 0.074935 3.117167 15.800205 -3.182926 25.235929 -1.103240 -1.182021 1.223570 0.000000 0.000000 0.000000 -88.366856 -3.736679 -4.517791 4.585227 2.444079 1.133641 -1.185756 1.078946 -0.059876 0.390439 0.791613 -0.293736 0.000000 0.000000 0.000000 -1.861443 0.494484 0.232294 2.602440 0.870168 -0.182294 10.425550 -5.072270 10.270647 0.000000 0.000000 0.000000 -2.622680 1.084526 0.184123 1.005100 -13.939370 -3.515434 -2.797123 -0.035859 -4.134067 27.397419 0.193357 -69.058656 -178.841345 -39.026349 -178.198638 0.000000 0.000000 0.000000 -1.850651 0.775950 -0.744015 0.947271 1.975543 0.562621 1.250818 4.306905 0.263028 11.924369 7.190211 73.170048 -179.744146 46.305209 -179.325838 0.000000 0.000000 0.000000 
1.119218 13.896553 -2.686878 0.000000 0.000000 0.000000 -90.569183 -3.125071 -1.531972 -27.329426 11.259709 -1.912299 30.903631 -7.207064 -5.298938 5.759540 6.720379 6.050956 10.382204 -0.321482 2.852144 0.000000 0.000000 0.000000 -91.986194 -3.704175 -4.989125 -11.946240 -6.518473 -5.350039 12.732112 0.076058 3.117905 15.801422 -3.191135 25.230089 -1.096627 -1.183030 1.225931 0.000000 0.000000 0.000000 -88.362355 -3.738555 -4.518268 4.579792 2.439232 1.139421 -1.188987 1.078285 -0.059778 0.393776 0.786642 -0.290216 0.000000 0.000000 0.000000 -1.859202 0.496495 0.232386 2.605572 0.875130 -0.179173 10.411338 -5.080369 10.281010 0.000000 0.000000 0.000000 -2.624678 1.086926 0.186344 1.006150 -13.924272 -3.506836 -2.805615 -0.041938 -4.138378 27.399650 0.204793 -69.054551 -178.840457 -39.026868 -178.196330 0.000000 0.000000 0.000000 -1.853901 0.776070 -0.743224 0.946318 1.972685 0.559488 1.256899 4.325203 0.262515 11.931870 7.188418 73.158996 -179.736250 46.300814 -179.327873 0.000000 0.000000 0.000000 
